<svg width="1024" height="1024" viewBox="0 0 1024 1024" fill="none" xmlns="http://www.w3.org/2000/svg">
<path d="M0 512C0 229.23 229.23 0 512 0C794.77 0 1024 229.23 1024 512C1024 794.77 794.77 1024 512 1024C229.23 1024 0 794.77 0 512Z" fill="#F8FAFC"/>
<path d="M723.442 128C749.304 220.58 781.689 434.75 704.326 550.794C677.339 596.896 588.508 693.599 449.076 711.59V654.243C595.255 630.63 693.082 509.189 699.828 394.495C705.226 302.74 689.334 229.575 680.713 204.463C635.36 209.71 524.414 235.947 443.454 298.917C342.253 377.628 328.76 457.464 327.635 541.798C326.511 626.132 416.467 711.59 400.724 727.332C384.982 743.075 251.172 682.354 274.786 483.326C298.399 284.299 463.694 224.703 533.41 192.094C589.182 166.006 683.337 138.495 723.442 128Z" fill="#135AA6" stroke="#135AA6"/>
<path d="M482.81 872.387C469.691 878.759 434.458 884.98 398.476 858.893C353.498 826.284 346.751 753.195 351.249 691.35C355.747 629.505 432.209 433.851 523.29 406.864C614.37 379.877 479.436 409.113 415.343 653.119C382.059 798.848 433.709 827.783 463.694 824.035L482.81 872.387Z" fill="#135AA6"/>
<path d="M482.81 872.387C469.691 878.759 434.458 884.981 398.476 858.893C353.498 826.284 346.751 753.195 351.249 691.35C355.747 629.505 432.209 433.851 523.29 406.864C614.37 379.877 479.436 409.113 415.343 653.119M482.81 872.387C438.956 880.633 364.068 848.323 415.343 653.119M482.81 872.387L463.694 824.035C433.709 827.783 382.059 798.848 415.343 653.119" stroke="#135AA6"/>
<path fill-rule="evenodd" clip-rule="evenodd" d="M527.787 761.066C565.048 761.066 595.254 791.272 595.254 828.533C595.254 865.794 565.048 896 527.787 896C490.526 896 460.32 865.794 460.32 828.533C460.32 791.272 490.526 761.066 527.787 761.066ZM527.787 806.044C515.367 806.044 505.298 816.113 505.298 828.533C505.298 840.953 515.367 851.022 527.787 851.022C540.208 851.022 550.276 840.953 550.276 828.533C550.276 816.113 540.208 806.044 527.787 806.044Z" fill="#135AA6"/>
</svg>
