<svg width="1080" height="1080" viewBox="0 0 1080 1080" fill="none" xmlns="http://www.w3.org/2000/svg">
<path d="M0 540C0 241.766 241.766 0 540 0V0C838.234 0 1080 241.766 1080 540V540C1080 838.234 838.234 1080 540 1080V1080C241.766 1080 0 838.234 0 540V540Z" fill="url(#paint0_linear_1149_2)"/>
<path d="M599.542 142C606.791 167.951 615.869 227.984 594.184 260.512C586.619 273.435 561.719 300.541 522.635 305.584V289.509C563.61 282.89 591.032 248.85 592.923 216.7C594.436 190.981 589.981 170.472 587.565 163.433C574.852 164.904 543.753 172.258 521.06 189.909C492.692 211.972 488.91 234.351 488.595 257.99C488.28 281.63 513.495 305.584 509.082 309.997C504.67 314.409 467.162 297.389 473.781 241.6C480.4 185.812 526.733 169.106 546.275 159.966C561.908 152.653 588.3 144.942 599.542 142Z" fill="#135AA6" stroke="#135AA6" stroke-width="6"/>
<path d="M532.091 350.658C528.414 352.444 518.538 354.188 508.452 346.876C495.844 337.735 493.953 317.248 495.214 299.912C496.474 282.577 517.907 227.733 543.438 220.169C568.968 212.604 531.145 220.799 513.179 289.196C503.85 330.044 518.328 338.155 526.733 337.105L532.091 350.658Z" fill="#135AA6"/>
<path d="M532.091 350.658C528.414 352.444 518.538 354.188 508.452 346.876C495.844 337.735 493.953 317.248 495.214 299.912C496.474 282.577 517.907 227.733 543.438 220.169C568.968 212.604 531.145 220.799 513.179 289.196M532.091 350.658C519.798 352.969 498.807 343.913 513.179 289.196M532.091 350.658L526.733 337.105C518.328 338.155 503.85 330.044 513.179 289.196" stroke="#135AA6" stroke-width="6"/>
<path fill-rule="evenodd" clip-rule="evenodd" d="M544.7 319.452C555.144 319.452 563.611 327.919 563.611 338.364C563.611 348.808 555.144 357.275 544.7 357.275C534.255 357.275 525.788 348.808 525.788 338.364C525.788 327.919 534.255 319.452 544.7 319.452ZM544.7 332.06C541.218 332.06 538.396 334.882 538.396 338.364C538.396 341.845 541.218 344.667 544.7 344.667C548.181 344.667 551.003 341.845 551.003 338.364C551.003 334.882 548.181 332.06 544.7 332.06Z" fill="#135AA6"/>
<path d="M761.999 373H318C277.131 373 244 406.131 244 447V743C244 783.869 277.131 817 318 817H761.999C802.868 817 835.999 783.869 835.999 743V447C835.999 406.131 802.868 373 761.999 373Z" stroke="#135AA6" stroke-width="39.848" stroke-linecap="round" stroke-linejoin="round"/>
<path d="M650.571 534.495V608.495" stroke="#135AA6" stroke-width="39.848" stroke-linecap="round" stroke-linejoin="round"/>
<path d="M428.573 534.495V608.495" stroke="#135AA6" stroke-width="39.848" stroke-linecap="round" stroke-linejoin="round"/>
<path d="M487.334 681.839C501.699 694.246 542.574 711.615 591.154 681.839" stroke="#135AA6" stroke-width="39.848" stroke-linecap="round"/>
<defs>
<linearGradient id="paint0_linear_1149_2" x1="-151.5" y1="-236" x2="1080" y2="1169" gradientUnits="userSpaceOnUse">
<stop stop-color="#F8FAFC"/>
<stop offset="1" stop-color="#60A8F5"/>
</linearGradient>
</defs>
</svg>
